Coordinates
version=1
nRows=6
nColumns=36
inDegrees=yes

Units are S.I. units (second, meters, Newtons, ...)
If the header above contains a line with 'inDegrees', this indicates whether rotational values are in degrees (yes) or radians (no).

endheader
time	pelvis_tilt	pelvis_list	pelvis_rotation	pelvis_tx	pelvis_ty	pelvis_tz	hip_flexion_r	hip_adduction_r	hip_rotation_r	knee_angle_r	knee_angle_r_beta	ankle_angle_r	subtalar_angle_r	mtp_angle_r	hip_flexion_l	hip_adduction_l	hip_rotation_l	knee_angle_l	knee_angle_l_beta	ankle_angle_l	subtalar_angle_l	mtp_angle_l	lumbar_extension	lumbar_bending	lumbar_rotation	arm_flex_r	arm_add_r	arm_rot_r	elbow_flex_r	pro_sup_r	arm_flex_l	arm_add_l	arm_rot_l	elbow_flex_l	pro_sup_l
      5.69000000	     -5.68783377	      0.14822141	     -2.07510127	     -0.23484682	      1.15373119	     -0.62883254	     11.04214456	    -10.49929887	     -5.80420480	      5.51581227	      0.09626908	     -3.29297707	      2.05015111	     -7.49999985	      8.41944723	     -9.93024507	     -9.85054593	      5.38649771	      0.09401212	     -1.10065535	      6.47707442	     -7.49999985	    -12.25734744	     -0.48842448	      2.71832505	    -18.26331846	    -14.56987325	      1.85829697	    126.14846733	    108.09843815	    -12.77429139	    -13.37649836	     12.82080315	    121.15082224	    108.04764367
      5.70000000	     -5.21504151	      0.12777054	     -1.85872140	     -0.23363344	      1.15385063	     -0.62936842	     10.13553316	    -10.57314359	     -6.48932624	      5.03656882	      0.08790471	     -2.90466932	      2.97886209	     -7.49999985	      7.66776923	     -9.86704001	     -9.91564368	      4.95306566	      0.08644730	     -0.90771354	      7.01237424	     -7.49999985	    -12.05528562	     -0.43929197	      2.40619489	    -18.52590169	    -14.43933533	      1.77176256	    126.13358151	    108.23666135	    -13.30790728	    -13.28883568	     12.40210910	    121.34235086	    107.76798419
      5.71000000	     -4.87128051	      0.14725367	     -1.74004307	     -0.23296757	      1.15378446	     -0.62969532	      9.40906314	    -10.61443595	     -6.40257269	      4.52743599	      0.07901866	     -2.99716818	      3.03348630	     -7.49999986	      7.04905305	     -9.75961736	     -9.53684094	      4.48707088	      0.07831416	     -1.17057578	      6.72432780	     -7.49999986	    -11.79021271	     -0.45977444	      2.17847751	    -18.68011499	    -14.24320764	      1.95871131	    126.40426916	    103.46876608	    -13.76571754	    -13.27455633	     12.29351228	    121.96784275	    103.15150705
      5.72000000	     -4.39826633	      0.10752982	     -1.59079682	     -0.23258924	      1.15389615	     -0.63000251	      8.63754162	    -10.62200196	     -6.78081518	      4.16603558	      0.07271104	     -2.87276768	      3.30099797	     -7.49999986	      6.45859447	     -9.77105298	     -9.48046973	      4.31184979	      0.07525598	     -1.00376884	      6.93594701	     -7.49999986	    -11.76361630	     -0.40401077	      2.10344064	    -18.85226114	    -13.98822042	      1.81342320	    126.40057240	    102.85390539	    -13.92167552	    -13.28840201	     12.05447305	    122.01996385	    102.54590835
      5.73000000	     -4.15055002	      0.15758807	     -1.49032067	     -0.23279780	      1.15379924	     -0.63032707	      8.24255362	    -10.70667990	     -6.87860437	      3.96297114	      0.06916689	     -2.80876978	      3.45779107	     -7.49999986	      6.21872671	     -9.70048760	     -9.28570901	      4.29007439	      0.07487592	     -1.01986530	      6.83770683	     -7.49999986	    -11.58552743	     -0.44068561	      1.95870291	    -18.90470702	    -13.83459726	      1.86246048	    126.54226407	    100.05378498	    -14.13152034	    -13.25563557	     11.89068301	    122.35537003	     99.89029221
      5.74000000	     -3.79071888	      0.20722430	     -1.39545853	     -0.23322354	      1.15391159	     -0.63065180	      7.88012083	    -10.83415283	     -7.43164711	      4.02066215	      0.07017379	     -2.38666973	      4.15581379	     -7.49999987	      6.03713232	     -9.69955490	     -9.73205424	      4.61257375	      0.08050460	     -0.47624409	      7.80508600	     -7.49999987	    -11.59872291	     -0.47432752	      1.88128620	    -18.88423247	    -13.67897338	      1.33116427	    125.89394340	    107.30062921	    -14.11803371	    -13.16924566	     11.15735374	    121.49857336	    106.79879365
